<?xml version="1.0" encoding="utf-8"?>
<!-- Svg Vector Icons : http://www.onlinewebfonts.com/icon -->
<!DOCTYPE svg PUBLIC "-//W3C//DTD SVG 1.1//EN" "http://www.w3.org/Graphics/SVG/1.1/DTD/svg11.dtd">
<svg version="1.1" xmlns="http://www.w3.org/2000/svg" xmlns:xlink="http://www.w3.org/1999/xlink" x="0px" y="0px" viewBox="0 0 256 256" enable-background="new 0 0 256 256" xml:space="preserve">
<metadata> Svg Vector Icons : http://www.onlinewebfonts.com/icon </metadata>
<g> <path fill="#000000" d="M208.1,238.9c0,3.9-3.2,7.1-7.1,7.1H27.2c-3.9,0-7.1-3.2-7.1-7.1v-4c0-3.9,3.2-7.1,7.1-7.1H201 c3.9,0,7.1,3.2,7.1,7.1V238.9z M195.6,14.2l-19.4,19.4l36.2,36.2l19.4-19.4c5.6-5.6,5.6-14.6,0-20.2l-16-16 C210.2,8.6,201.1,8.6,195.6,14.2z M204.2,78l-101,101L67,142.7l101-101L204.2,78z M95.2,186.8l-36.2-36.1l-21.9,58L95.2,186.8z"/></g>
</svg>